<!--?xml version="1.0" encoding="utf-8"?-->
<!-- Generator: Adobe Illustrator 18.1.1, SVG Export Plug-In . SVG Version: 6.00 Build 0)  -->

<svg version="1.1" id="_x32_" xmlns="http://www.w3.org/2000/svg" xmlns:xlink="http://www.w3.org/1999/xlink" x="0px" y="0px" viewBox="0 0 512 512" style="width: 256px; height: 256px; opacity: 1;" xml:space="preserve">
<style type="text/css">
	.st0{fill:#4B4B4B;}
</style>
<g>
	<path class="st0" d="M350.648,61.604C257.17-1.187,141.054-15.98,36.878,17.25l-2.229,26.827
		c84.846,9.292,167.722,40.71,239.293,94.225L350.648,61.604z" style="fill: rgb(75, 75, 75);"></path>
	<path class="st0" d="M450.4,161.346l-76.707,76.708c53.524,71.58,84.933,154.447,94.233,239.302l26.828-2.239
		C527.984,370.949,513.191,254.825,450.4,161.346z" style="fill: rgb(75, 75, 75);"></path>
	<path class="st0" d="M440.352,112.543L399.461,71.65c-7.244-7.236-18.975-7.236-26.211,0l-84.837,84.838l67.102,67.102
		l84.837-84.837C447.589,131.517,447.589,119.787,440.352,112.543z" style="fill: rgb(75, 75, 75);"></path>
	<path class="st0" d="M6.389,451.197c-8.52,8.52-8.52,22.324,0.009,30.853l23.556,23.556c8.52,8.52,22.324,8.52,30.844,0
		l270.424-270.415l-54.409-54.41L6.389,451.197z" style="fill: rgb(75, 75, 75);"></path>
</g>
</svg>
